<?xml version="1.0" standalone="no"?>
<!DOCTYPE svg PUBLIC "-//W3C//DTD SVG 20010904//EN"
 "http://www.w3.org/TR/2001/REC-SVG-20010904/DTD/svg10.dtd">
<svg version="1.0" xmlns="http://www.w3.org/2000/svg"
 width="700.000000pt" height="700.000000pt" viewBox="0 0 700.000000 700.000000"
 preserveAspectRatio="xMidYMid meet">
<metadata>
Created by potrace 1.11, written by Peter Selinger 2001-2013
</metadata>
<g transform="translate(0.000000,700.000000) scale(0.100000,-0.100000)"
fill="#000000" stroke="none">
<path d="M1079 6016 c-2 -2 -44 -6 -94 -9 -49 -4 -103 -8 -120 -11 -16 -2 -61
-7 -100 -11 -38 -4 -72 -8 -75 -10 -3 -1 -30 -6 -60 -9 -30 -4 -67 -9 -83 -11
-15 -3 -55 -10 -90 -15 -34 -6 -102 -19 -152 -30 -50 -10 -101 -21 -115 -24
-14 -2 -54 -12 -90 -21 -36 -9 -72 -17 -80 -19 -13 -2 -15 -38 -18 -235 l-2
-232 32 17 c123 62 597 335 718 413 32 21 276 167 300 179 26 14 48 32 39 32
-3 0 -8 -2 -10 -4z"/>
<path d="M2485 5904 c-33 -14 -88 -39 -123 -55 -35 -16 -65 -29 -68 -29 -2 0
-41 -17 -87 -39 -480 -227 -758 -377 -1267 -687 -182 -110 -415 -245 -610
-353 -36 -20 -125 -65 -197 -101 l-132 -65 -1 -397 c0 -219 2 -398 5 -398 28
0 571 275 773 392 46 26 85 48 87 48 2 0 153 91 336 201 576 348 1006 576
1409 746 58 24 123 53 145 63 57 25 391 155 494 191 82 29 229 78 408 137 l81
26 -136 53 c-122 48 -444 157 -497 168 -11 2 -69 17 -130 34 -60 16 -157 39
-215 51 -58 12 -114 24 -125 27 -65 14 -93 12 -150 -13z"/>
<path d="M4615 5064 c-27 -8 -59 -16 -70 -18 -75 -16 -288 -72 -440 -115 -830
-236 -1686 -608 -2445 -1063 -69 -41 -228 -138 -355 -215 -126 -77 -270 -161
-320 -188 -49 -27 -117 -64 -150 -82 -102 -57 -553 -277 -694 -339 -73 -32
-135 -63 -137 -69 -2 -5 -3 -182 -2 -391 l3 -382 75 30 c111 43 305 126 385
163 39 18 93 43 120 55 69 31 347 170 453 226 79 43 437 246 500 285 15 9 95
58 177 109 529 325 957 548 1480 770 140 60 199 84 390 157 148 57 633 218
691 229 11 2 48 13 82 23 142 46 814 203 970 227 23 4 42 10 42 14 0 8 -178
180 -246 238 -125 107 -403 320 -449 344 -5 3 -32 -1 -60 -8z"/>
<path d="M5847 3829 c-15 -4 -49 -10 -75 -14 -26 -3 -54 -8 -62 -10 -8 -2 -33
-6 -55 -9 -22 -4 -51 -8 -65 -11 -40 -8 -71 -14 -135 -26 -88 -15 -156 -29
-220 -43 -81 -18 -341 -79 -390 -92 -33 -8 -68 -17 -78 -19 -10 -2 -27 -7 -37
-10 -10 -3 -27 -7 -37 -9 -54 -11 -365 -104 -548 -164 -297 -98 -630 -224
-860 -326 -486 -215 -843 -402 -1330 -696 -521 -315 -658 -392 -993 -559 -121
-61 -223 -111 -226 -111 -5 0 -148 -64 -177 -80 -9 -5 -68 -30 -130 -55 -63
-26 -132 -55 -154 -65 -22 -9 -93 -37 -157 -61 l-118 -44 0 -382 c0 -211 4
-383 8 -383 8 0 93 29 225 77 74 26 364 141 410 162 25 12 48 21 51 21 13 0
361 162 536 250 308 154 488 255 952 536 609 369 1069 600 1661 835 144 57
185 73 387 144 189 66 653 207 729 222 14 2 27 6 30 8 7 4 373 92 414 99 15 3
35 7 45 10 9 3 28 7 42 10 14 3 72 14 130 26 102 20 230 43 300 54 87 13 335
58 337 60 2 2 -11 34 -28 72 -120 268 -302 588 -337 590 -9 0 -30 -3 -45 -7z"/>
<path d="M6350 2460 c-52 -10 -113 -21 -135 -24 -47 -8 -216 -37 -230 -40 -5
-2 -32 -7 -60 -11 -27 -5 -52 -10 -55 -10 -6 -2 -77 -16 -100 -20 -8 -2 -58
-13 -110 -25 -52 -12 -104 -23 -114 -25 -83 -18 -257 -61 -331 -82 -49 -14
-97 -27 -105 -29 -200 -48 -674 -204 -964 -316 -302 -116 -530 -216 -821 -359
-141 -69 -413 -211 -480 -250 -16 -10 -48 -27 -70 -39 -47 -25 -446 -266 -543
-327 -37 -23 -74 -46 -82 -50 -15 -8 -95 -54 -230 -133 -352 -206 -934 -479
-1355 -634 -99 -37 -189 -71 -200 -76 -12 -5 339 -9 857 -9 l877 -1 153 89
c84 48 203 119 263 156 118 73 383 232 453 271 23 13 63 36 90 50 26 15 61 34
77 44 94 55 616 320 629 320 2 0 42 17 88 39 45 21 128 58 183 81 55 23 118
50 140 60 22 9 96 39 165 65 69 26 134 51 145 56 98 39 388 137 590 199 161
49 187 56 392 111 148 39 514 123 628 144 50 10 99 19 110 21 11 2 89 16 174
31 l154 28 -6 188 c-4 103 -8 191 -10 195 -3 4 -8 39 -11 77 -5 62 -12 109
-33 223 -3 17 -11 32 -17 31 -6 -1 -54 -9 -106 -19z"/>
<path d="M6380 1009 c-19 -4 -48 -10 -65 -13 -16 -3 -39 -8 -50 -10 -11 -2
-56 -11 -100 -21 -130 -26 -430 -100 -570 -140 -72 -20 -139 -39 -150 -41 -11
-2 -84 -24 -161 -49 -78 -25 -144 -45 -148 -45 -7 0 -266 -91 -426 -150 -130
-48 -424 -168 -526 -215 -41 -19 -77 -35 -80 -35 -7 0 -216 -101 -401 -194
l-182 -91 921 -3 922 -2 115 36 c138 43 501 143 644 178 30 7 59 60 129 236
17 41 36 89 43 105 16 35 93 270 99 300 2 11 13 53 24 93 22 77 23 76 -38 61z"/>
</g>
</svg>
